<?xml version="1.0" encoding="UTF-8"?>
<!DOCTYPE svg PUBLIC "-//W3C//DTD SVG 1.1//EN" "http://www.w3.org/Graphics/SVG/1.1/DTD/svg11.dtd">
<!-- Creator: CorelDRAW X6 -->
<svg xmlns="http://www.w3.org/2000/svg" xml:space="preserve" width="6.94444in" height="6.94444in" version="1.1" style="shape-rendering:geometricPrecision; text-rendering:geometricPrecision; image-rendering:optimizeQuality; fill-rule:evenodd; clip-rule:evenodd"
viewBox="0 0 6944 6944"
 xmlns:xlink="http://www.w3.org/1999/xlink">
 <defs>
  <style type="text/css">
   <![CDATA[
    .fil4 {fill:#2E3031;fill-rule:nonzero}
    .fil2 {fill:#7BCDCC;fill-rule:nonzero}
    .fil3 {fill:#EFEFEF;fill-rule:nonzero}
    .fil0 {fill:#F599A4;fill-rule:nonzero}
    .fil1 {fill:url(#id3)}
   ]]>
  </style>
   <clipPath id="id0" style="clip-rule:nonzero">
    <path d="M5203 5730l-2907 0c-45,0 -86,-17 -115,-46 -29,-30 -47,-70 -47,-115 0,-144 0,-288 0,-431l3202 -3203c18,27 29,58 29,92l0 3543c0,44 -17,84 -47,115 -29,29 -70,46 -115,46l0 0z"/>
   </clipPath>
   <clipPath id="id1" style="clip-rule:nonzero">
    <path d="M2134 5137c0,-60 0,-119 0,-177 0,-50 0,-100 0,-149l2945 -2946c42,0 83,0 124,0 45,0 85,19 114,48 7,7 14,15 19,22l-3203 3203 0 0z"/>
   </clipPath>
   <clipPath id="id2" style="clip-rule:nonzero">
    <path d="M2135 4810c0,-814 0,-1630 0,-2444 0,-7 0,-13 0,-20 0,-106 0,-213 0,-320 0,-45 18,-85 47,-114 29,-29 70,-47 114,-47 214,0 427,0 640,0 506,0 1011,0 1516,0 210,0 418,0 628,0l-2946 2946 0 0z"/>
   </clipPath>
  <linearGradient id="id3" gradientUnits="userSpaceOnUse" x1="0.34252" y1="0.503937" x2="6944.27" y2="6944.43">
   <stop offset="0" style="stop-color:#8C5D63"/>
   <stop offset="0.301961" style="stop-color:#8C5D63"/>
   <stop offset="0.760784" style="stop-color:#F599A4"/>
   <stop offset="1" style="stop-color:#F599A4"/>
  </linearGradient>
 </defs>
 <g id="Layer_x0020_1">
  <metadata id="CorelCorpID_0Corel-Layer"/>
  <polygon class="fil0" points="0,6944 6944,6944 6944,0 0,0 "/>
  <path class="fil1" d="M327 6944l-327 0 2134 -2134c0,50 0,99 0,149 0,59 0,118 0,178l-1807 1807zm5010 -5010c-6,-8 -12,-16 -19,-23 -29,-29 -70,-47 -114,-47 -41,0 -82,0 -124,0l1864 -1864 1 0 0 326 -1607 1607z"/>
  <polygon class="fil2" points="6944,0 0,6944 0,0 "/>
  <g style="clip-path:url(#id0)">
   <image transform="matrix(233.805 0 0 274.603 -809697 -947741)" x="3472" y="3458" width="14" height="14" xlink:href="p1cvfumuia766qo91sf37in1cla4_Images\p1cvfumuia766qo91sf37in1cla4_ImgID1.png"/>
  </g>
  <g style="clip-path:url(#id1)">
   <image transform="matrix(231.905 0 0 237.205 -803100 -818481)" x="3472" y="3458" width="14" height="14" xlink:href="p1cvfumuia766qo91sf37in1cla4_Images\p1cvfumuia766qo91sf37in1cla4_ImgID2.png"/>
  </g>
  <g style="clip-path:url(#id2)">
   <image transform="matrix(213.707 0 0 213.707 -739910 -737215)" x="3472" y="3458" width="14" height="14" xlink:href="p1cvfumuia766qo91sf37in1cla4_Images\p1cvfumuia766qo91sf37in1cla4_ImgID3.png"/>
  </g>
  <polygon class="fil3" points="1857,5452 5088,5452 5088,1586 1857,1586 "/>
  <polygon class="fil4" points="2059,4647 4886,4647 4886,1819 2059,1819 "/>
 </g>
</svg>
